<svg width="33" height="33" viewBox="0 0 33 33" fill="none" xmlns="http://www.w3.org/2000/svg">
<path d="M12.6094 23.0645C12.6094 22.9707 12.5156 22.877 12.375 22.877C12.2344 22.877 12.1406 22.9707 12.1406 23.0645C12.1406 23.1582 12.2344 23.252 12.375 23.2051C12.5156 23.2051 12.6094 23.1582 12.6094 23.0645ZM11.1562 22.8301C11.1562 22.9238 11.25 23.0645 11.3906 23.0645C11.4844 23.1113 11.625 23.0645 11.6719 22.9707C11.6719 22.877 11.625 22.7832 11.4844 22.7363C11.3438 22.6895 11.2031 22.7363 11.1562 22.8301ZM13.2656 22.7832C13.125 22.7832 13.0312 22.877 13.0312 23.0176C13.0312 23.1113 13.1719 23.1582 13.3125 23.1113C13.4531 23.0645 13.5469 23.0176 13.5 22.9238C13.5 22.8301 13.3594 22.7363 13.2656 22.7832ZM16.3125 4.7832C9.84375 4.7832 4.875 9.75195 4.875 16.2207C4.875 21.4238 8.10938 25.877 12.7969 27.4707C13.4062 27.5645 13.5938 27.1895 13.5938 26.9082C13.5938 26.5801 13.5938 24.9863 13.5938 24.002C13.5938 24.002 10.3125 24.7051 9.60938 22.5957C9.60938 22.5957 9.09375 21.2363 8.34375 20.9082C8.34375 20.9082 7.26562 20.1582 8.39062 20.1582C8.39062 20.1582 9.5625 20.252 10.2188 21.377C11.25 23.2051 12.9375 22.6895 13.6406 22.3613C13.7344 21.6113 14.0156 21.0957 14.3906 20.7676C11.7656 20.4863 9.09375 20.1113 9.09375 15.6113C9.09375 14.2988 9.46875 13.6895 10.2188 12.8457C10.0781 12.5176 9.70312 11.2988 10.3594 9.6582C11.2969 9.37695 13.5938 10.9238 13.5938 10.9238C14.5312 10.6426 15.5156 10.5488 16.5 10.5488C17.5312 10.5488 18.5156 10.6426 19.4531 10.9238C19.4531 10.9238 21.7031 9.33008 22.6875 9.6582C23.3438 11.2988 22.9219 12.5176 22.8281 12.8457C23.5781 13.6895 24.0469 14.2988 24.0469 15.6113C24.0469 20.1113 21.2812 20.4863 18.6562 20.7676C19.0781 21.1426 19.4531 21.8457 19.4531 22.9707C19.4531 24.5176 19.4062 26.4863 19.4062 26.8613C19.4062 27.1895 19.6406 27.5645 20.25 27.4238C24.9375 25.877 28.125 21.4238 28.125 16.2207C28.125 9.75195 22.8281 4.7832 16.3125 4.7832ZM9.42188 20.9551C9.32812 21.002 9.375 21.1426 9.42188 21.2363C9.51562 21.2832 9.60938 21.3301 9.70312 21.2832C9.75 21.2363 9.75 21.0957 9.65625 21.002C9.5625 20.9551 9.46875 20.9082 9.42188 20.9551ZM8.90625 20.5801C8.85938 20.6738 8.90625 20.7207 9 20.7676C9.09375 20.8145 9.1875 20.8145 9.23438 20.7207C9.23438 20.6738 9.1875 20.627 9.09375 20.5801C9 20.5332 8.95312 20.5332 8.90625 20.5801ZM10.4062 22.2676C10.3594 22.3145 10.3594 22.4551 10.5 22.5488C10.5938 22.6426 10.7344 22.6895 10.7812 22.5957C10.8281 22.5488 10.8281 22.4082 10.7344 22.3145C10.6406 22.2207 10.5 22.1738 10.4062 22.2676ZM9.89062 21.5645C9.79688 21.6113 9.79688 21.752 9.89062 21.8457C9.98438 21.9395 10.0781 21.9863 10.1719 21.9395C10.2188 21.8926 10.2188 21.752 10.1719 21.6582C10.0781 21.5645 9.98438 21.5176 9.89062 21.5645Z" fill="white"/>
</svg>
